<svg id="电话咨询" xmlns="http://www.w3.org/2000/svg" width="136" height="136" viewBox="0 0 136 136">
  <defs>
    <style>
      .cls-1 {
        fill: none;
        stroke: #fff;
        stroke-width: 4px;
        fill-rule: evenodd;
      }
    </style>
  </defs>
  <path id="电话咨询-2" data-name="电话咨询" class="cls-1" d="M103.443,92.722l-2.091,2.118A9.89,9.89,0,0,1,94.076,98.5c-22.676,1.36-45-11.09-53.9-34.089-6.834-17.643-3.082-25.538-3.061-27.037h0.049a7.355,7.355,0,0,1,5.451-5.616L48,31a7.742,7.742,0,0,1,8.353,5.547l3,11.857a7.247,7.247,0,0,1-1.783,6.767c-0.048-.018-3.515,1.316-3.1,4.235a4.26,4.26,0,0,0,1.259,2.724A52.813,52.813,0,0,0,72.644,79.665c0.656,1.032,2.814.724,4.144,0.724,2.064,0,4.336-3.678,3.069-2.073l2.09-2.118a7.5,7.5,0,0,1,10.43-1.278l9.771,7.511A7.267,7.267,0,0,1,103.443,92.722Z"/>
</svg>
