<svg id="私人律师" xmlns="http://www.w3.org/2000/svg" width="136" height="136" viewBox="0 0 136 136">
  <defs>
    <style>
      .cls-1 {
        fill: none;
        stroke: #fff;
        stroke-width: 4px;
        fill-rule: evenodd;
      }
    </style>
  </defs>
  <path id="私人律师-2" data-name="私人律师" class="cls-1" d="M99.459,104.009A206.4,206.4,0,0,1,67.575,107a193.591,193.591,0,0,1-31.035-2.994,2.559,2.559,0,0,1-2.551-2.567l5.1-27.805A12.794,12.794,0,0,1,51.845,60.8a36.931,36.931,0,0,0,7.449,1.618,9.308,9.308,0,0,0,3.274,4.137l0.938-2.116,2.672,2.662-0.111.993c0.068,0.014.132,0.038,0.2,0.051L63.745,87.8,68,92.031,72.247,87.8,70.113,68.06c0.049-.011.094-0.03,0.142-0.042L70,66.879,72.647,64.2l0.967,2.218a9.27,9.27,0,0,0,3.118-4.069A43.044,43.044,0,0,0,84.155,60.8,12.794,12.794,0,0,1,96.909,73.637l5.1,27.805A2.559,2.559,0,0,1,99.459,104.009ZM68,60.319A15.158,15.158,0,1,1,83.062,45.161,15.111,15.111,0,0,1,68,60.319Z"/>
</svg>
